<svg width="221" height="268" viewBox="0 0 221 268" fill="none" xmlns="http://www.w3.org/2000/svg">
<path d="M205.573 11.2671V214.877C205.573 79.3555 148.306 40.0862 3 11.2671" stroke="black" stroke-width="22.232"/>
<path d="M13.5709 214.876L13.5709 64.1224C119.033 90.4333 146.4 117.455 146.4 214.876" stroke="black" stroke-width="22.232"/>
<path d="M7.70132 261.733H3.5932L9.85277 243.601H14.7931L21.0439 261.733H16.9357L12.3938 247.744H12.2521L7.70132 261.733ZM7.44456 254.606H17.1482V257.598H7.44456V254.606ZM62.8137 261.733H56.3859V243.601H62.8668C64.6907 243.601 66.2607 243.964 67.577 244.69C68.8932 245.41 69.9055 246.446 70.6138 247.797C71.328 249.149 71.6851 250.766 71.6851 252.649C71.6851 254.538 71.328 256.161 70.6138 257.519C69.9055 258.876 68.8873 259.918 67.5593 260.644C66.2371 261.37 64.6553 261.733 62.8137 261.733ZM60.2196 258.448H62.6543C63.7876 258.448 64.7409 258.248 65.5141 257.846C66.2932 257.439 66.8775 256.81 67.2671 255.96C67.6626 255.104 67.8603 254.001 67.8603 252.649C67.8603 251.309 67.6626 250.214 67.2671 249.364C66.8775 248.514 66.2962 247.889 65.5229 247.487C64.7497 247.086 63.7965 246.885 62.6632 246.885H60.2196V258.448ZM107.685 243.601H112.412L117.406 255.783H117.618L122.612 243.601H127.34V261.733H123.621V249.931H123.471L118.778 261.644H116.246L111.554 249.887H111.403V261.733H107.685V243.601ZM167.492 243.601V261.733H163.658V243.601H167.492ZM218.972 243.601V261.733H215.66L207.772 250.32H207.639V261.733H203.805V243.601H207.17L214.996 255.004H215.156V243.601H218.972Z" fill="black"/>
</svg>
